<svg width="44" height="28" viewBox="0 0 44 28" fill="none" xmlns="http://www.w3.org/2000/svg">
<g clip-path="url(#clip0_139_2)">
<mask id="mask0_139_2" style="mask-type:luminance" maskUnits="userSpaceOnUse" x="0" y="1" width="43" height="27">
<path d="M42.9092 1.15234H0.90918V27.1523H42.9092V1.15234Z" fill="white"/>
</mask>
<g mask="url(#mask0_139_2)">
<path d="M41.7023 1.1709H2.11608C1.48849 1.1709 0.90918 1.75958 0.90918 2.39731V25.9445C0.90918 26.6313 1.48849 27.1709 2.11608 27.1709H41.7023C42.3781 27.1709 42.9092 26.6313 42.9092 25.9445V2.39731C42.9092 1.71052 42.3781 1.1709 41.7023 1.1709ZM2.35746 7.2539L12.8816 14.8577L2.35746 24.669V7.2539ZM3.41952 25.6992L14.0402 15.7407L21.4747 21.1369C21.7161 21.3331 22.054 21.3331 22.2954 21.1369L29.7299 15.7407L40.3506 25.6992H3.41952ZM41.4609 24.669L30.9368 14.8577L41.4609 7.2539V24.669ZM41.4609 5.4388L21.9092 19.6652L2.35746 5.4388V2.6426H41.4609V5.4388Z" fill="#FCDA68"/>
</g>
</g>
<defs>
<clipPath id="clip0_139_2">
<rect width="43" height="27" fill="white" transform="translate(0.5 0.5)"/>
</clipPath>
</defs>
</svg>
