<svg width="37" height="40" viewBox="0 0 37 40" fill="none" xmlns="http://www.w3.org/2000/svg">
<g clip-path="url(#clip0_139_8)">
<mask id="mask0_139_8" style="mask-type:luminance" maskUnits="userSpaceOnUse" x="0" y="1" width="36" height="39">
<path d="M35.9092 1.17969H0.90918V39.1797H35.9092V1.17969Z" fill="white"/>
</mask>
<g mask="url(#mask0_139_8)">
<path d="M27.197 39.1799C26.8914 39.1799 26.7385 39.1799 26.4328 39.1799C24.9045 39.0202 22.7647 38.7009 20.9307 37.7429C12.066 32.6337 5.64682 25.4488 1.9787 16.1883C0.297475 12.037 0.603152 8.36476 2.74289 5.17148C3.81276 3.57484 5.49398 2.4572 6.71669 1.65888C8.09223 0.700893 9.46778 1.33955 10.232 3.25552C10.9962 5.17148 11.9132 6.92778 12.8302 8.52442C14.6643 11.7177 14.2058 13.6337 11.3018 15.7093C10.9962 15.869 10.5376 16.1883 10.0791 16.348L9.9263 16.5076C11.9132 22.8942 15.7342 27.0454 21.3892 29.4404C21.542 29.2807 21.6949 29.1211 21.6949 28.9614C22.1534 28.3227 22.6119 27.5244 23.2232 27.0454C24.9045 25.1295 26.5857 24.9698 28.7254 26.5664C30.4066 27.6841 32.0879 28.8017 33.7691 29.9194L34.3804 30.3984C35.1446 30.8774 36.3673 32.1547 35.1446 34.39C33.6162 37.4236 30.7123 39.1799 27.197 39.1799ZM7.9394 2.77652C7.78656 2.77652 7.63372 2.77652 7.48088 2.93619C6.41101 3.57484 4.88263 4.69249 3.9656 5.9698C1.67302 9.48241 2.43721 12.995 3.35424 15.5496C7.02237 24.3311 13.1359 31.3564 21.542 36.1463C22.7647 36.9446 24.5988 37.4236 26.4328 37.4236C29.7953 37.5832 32.3935 36.3059 34.0748 33.432C34.6861 32.3143 34.3804 31.995 33.7691 31.516L33.0049 31.1967C31.3237 30.079 29.4896 28.9614 27.8084 27.8437C27.0442 27.3648 26.4328 27.0454 25.9743 27.0454C25.6686 27.0454 25.0573 27.2051 24.1403 28.0034C23.6818 28.4824 23.2232 29.1211 22.7647 29.7597C22.459 30.079 22.3062 30.3984 22.0005 30.7177C21.8477 31.037 21.3892 31.037 21.0835 31.037C14.6643 28.6421 10.3848 23.6925 8.24507 16.348C8.09223 16.0286 8.24507 15.7093 8.55075 15.5496L9.31494 15.0706C9.77346 14.7513 10.0791 14.5916 10.5376 14.2723C12.8302 12.6757 12.9831 11.7177 11.6075 9.32274C10.5376 7.56644 9.77346 5.81014 8.85643 3.89417C8.70359 3.41518 8.24507 2.77652 7.9394 2.77652Z" fill="#313131"/>
</g>
</g>
<defs>
<clipPath id="clip0_139_8">
<rect width="36" height="39" fill="white" transform="translate(0.5 0.5)"/>
</clipPath>
</defs>
</svg>
